<svg width="1440" height="508" viewBox="0 0 1440 508" fill="none" xmlns="http://www.w3.org/2000/svg">
<mask id="mask0" mask-type="alpha" maskUnits="userSpaceOnUse" x="0" y="0" width="1440" height="508">
<rect width="1440" height="508" fill="#1E2027"/>
</mask>
<g mask="url(#mask0)">
<path d="M761.488 347.734C750.878 351.596 740.25 354.438 729.698 356.229C709.435 359.667 690.105 359.073 672.242 354.463C659.718 351.23 647.945 346.223 636.249 339.153C625.833 332.859 615.72 325.059 605.331 315.31C586.041 297.209 568.73 274.97 551.99 253.46C539.749 237.733 527.09 221.468 513.776 206.983C462.689 151.398 390.456 113.919 315.595 104.156C240.734 94.3933 161.303 112.093 97.6699 152.718C48.4034 184.171 8.17122 229.485 -15.6128 280.314L-15.8361 280.21C-3.78746 254.462 12.2365 230.303 31.7886 208.406C50.9693 186.924 73.0925 168.117 97.5424 152.511C113.406 142.382 130.4 133.557 148.049 126.28C165.527 119.072 183.797 113.321 202.347 109.188C220.899 105.054 239.88 102.503 258.765 101.609C277.835 100.704 296.966 101.48 315.63 103.914C334.293 106.348 352.986 110.505 371.184 116.27C389.207 121.979 406.901 129.312 423.771 138.065C440.641 146.817 456.826 157.062 471.87 168.51C487.061 180.07 501.223 192.959 513.959 206.817C527.28 221.31 539.941 237.579 552.186 253.31C585.663 296.321 620.276 340.798 672.302 354.227C706.165 362.969 746.117 356.963 784.795 337.314C819.56 319.655 849.534 293.845 878.521 268.885L1128.95 53.2426C1149.81 35.2841 1175.77 12.9359 1202.59 -5.27808C1231.64 -25.0051 1258.94 -38.0436 1286.05 -45.1409C1299.01 -48.5336 1312.48 -50.631 1326.09 -51.3794C1339.54 -52.1178 1353.17 -51.5402 1366.6 -49.661C1380.03 -47.784 1393.3 -44.6018 1406.02 -40.2034C1418.91 -35.7504 1431.29 -30.0379 1442.82 -23.2217L1442.7 -23.0118C1395.84 -50.7114 1338.77 -58.6915 1286.11 -44.9075C1224.61 -28.8088 1173.88 14.8813 1129.11 53.4277L878.68 269.07C849.682 294.039 819.697 319.859 784.905 337.532C777.138 341.479 769.318 344.884 761.488 347.734Z" fill="#30323A"/>
<path d="M746.718 355.202C737.408 358.59 728.025 361.16 718.626 362.889C698.278 366.631 678.767 366.211 660.642 361.641C648.229 358.511 636.551 353.613 624.946 346.67C614.609 340.487 604.569 332.808 594.25 323.201C575.09 305.357 557.882 283.402 541.24 262.169C529.331 246.974 517.02 231.262 504.114 217.226C453.762 162.454 383.005 125.159 309.988 114.9C236.338 104.553 158.257 121.257 95.7672 160.734C46.7569 191.593 7.41942 236.503 -15 287.193L-15.2711 287.072C7.17098 236.33 46.5483 191.372 95.6074 160.482C111.238 150.608 127.983 142.04 145.382 135.016C162.578 128.073 180.557 122.578 198.821 118.685C217.046 114.799 235.7 112.477 254.259 111.784C272.963 111.086 291.728 112.034 310.029 114.605C346.723 119.762 382.341 131.353 415.893 149.063C449.352 166.722 479.107 189.587 504.332 217.026C517.243 231.071 529.561 246.788 541.472 261.988C574.75 304.452 609.161 348.36 660.711 361.357C695.444 370.115 735.555 363.471 773.658 342.65C801.921 327.206 826.408 305.288 850.089 284.095C856.706 278.173 863.549 272.047 870.392 266.136C962.47 186.749 1045.37 118.109 1123.83 56.29C1147.67 37.5015 1173.45 17.9042 1200.39 1.86494C1230.26 -15.9185 1258.49 -27.5412 1286.7 -33.6665C1300.08 -36.5723 1314.06 -38.2693 1328.27 -38.7095C1342.18 -39.1416 1356.36 -38.3757 1370.42 -36.4289C1398.3 -32.5687 1425.81 -23.9772 1449.98 -11.5875L1449.85 -11.3246C1399.81 -36.9765 1340.37 -45.0147 1286.76 -33.3764C1224.78 -19.9189 1172.38 18.4132 1124.01 56.5233C1045.56 118.341 962.661 186.979 870.587 266.363C863.746 272.273 856.905 278.398 850.287 284.318C826.596 305.523 802.094 327.451 773.8 342.911C764.892 347.775 755.843 351.88 746.718 355.202Z" fill="#30323A"/>
<path d="M732.353 362.529C724.104 365.531 715.777 367.883 707.547 369.516C687.097 373.573 667.413 373.338 649.04 368.816C636.734 365.789 625.153 360.999 613.634 354.179C603.377 348.105 593.407 340.549 583.155 331.077C564.12 313.491 547.012 291.815 530.469 270.854C518.9 256.199 506.94 241.043 494.452 227.465C444.099 172.707 376.596 136.544 304.381 125.637C231.944 114.697 155.214 130.408 93.8622 168.743C45.076 199.027 6.63558 243.533 -14.3818 294.064L-14.7021 293.93C-4.22696 268.744 10.6338 244.962 29.4635 223.247C48.0743 201.785 69.6814 183.346 93.6795 168.45C109.076 158.83 125.576 150.519 142.722 143.748C159.636 137.07 177.327 131.832 195.3 128.178C213.2 124.54 231.521 122.446 249.755 121.956C268.094 121.461 286.49 122.585 304.432 125.295C340.31 130.714 375.162 142.41 408.018 160.059C440.686 177.605 469.852 200.206 494.707 227.232C507.204 240.821 519.168 255.981 530.741 270.64C563.829 312.56 598.044 355.908 649.124 368.48C684.08 377.084 725.412 369.612 762.526 347.975C788.409 332.886 810.477 311.847 831.818 291.5C841.633 282.141 851.784 272.463 862.273 263.376C953.89 184.287 1037.77 117.541 1118.71 59.3225C1139.85 44.1129 1168 24.6488 1198.24 8.9951C1228.85 -6.85365 1258.01 -17.0594 1287.36 -22.2015C1314.8 -27.0106 1344.04 -27.3468 1374.25 -23.2026C1402.92 -19.2708 1431.58 -11.2369 1457.15 0.0319742L1457.01 0.349375C1403.43 -23.2626 1341.62 -31.3586 1287.41 -21.8601C1223.22 -10.6115 1168.49 23.9423 1118.91 59.6041C1037.98 117.817 954.108 184.557 862.499 263.638C852.018 272.719 841.871 282.394 832.058 291.752C810.701 312.112 788.621 333.167 762.702 348.274C752.949 353.96 742.712 358.759 732.353 362.529Z" fill="#30323A"/>
<path d="M718.32 369.803C711.067 372.443 703.74 374.564 696.464 376.116C675.901 380.501 656.043 380.46 637.444 375.992C625.244 373.062 613.757 368.381 602.322 361.684C592.141 355.719 582.241 348.281 572.054 338.944C553.141 321.609 536.13 300.213 519.677 279.523C508.458 265.411 496.855 250.822 484.789 237.705C435.167 183.757 369.104 147.771 298.771 136.376C227.79 124.874 152.409 139.593 91.9568 176.755C43.9925 206.241 5.45855 251.501 -13.7634 300.933L-14.1345 300.788C-4.46829 275.933 9.81816 252.353 28.3245 230.703C46.615 209.307 67.9559 191.041 91.7473 176.416C122.204 157.694 155.87 144.675 191.806 137.723C209.388 134.322 227.374 132.446 245.262 132.147C263.241 131.846 281.266 133.136 298.835 135.984C333.891 141.663 367.977 153.463 400.144 171.053C432.02 188.484 460.596 210.819 485.08 237.437C497.156 250.564 508.761 265.16 519.987 279.277C552.893 320.66 586.918 363.45 637.536 375.609C673.116 384.154 714.617 376.026 751.392 353.309C776.239 337.96 796.111 317.74 817.154 296.33C828.934 284.343 841.115 271.948 854.15 260.625C897.608 223.063 940.677 187.866 982.158 156.013C1026.69 121.817 1070.91 90.3082 1113.59 62.3628C1144.43 42.1645 1170.66 27.4758 1196.12 16.1384C1227.4 2.20723 1257.46 -6.5811 1288.01 -10.7317C1316.04 -14.539 1346.34 -14.2796 1378.09 -9.96464C1407.36 -5.98578 1437.18 1.4912 1464.31 11.6579L1464.17 12.0296C1406.55 -9.56178 1342.36 -17.714 1288.07 -10.338C1218.32 -0.864276 1160.84 31.8965 1113.8 62.6938C1031.55 116.552 944.28 183.246 854.409 260.922C841.386 272.234 829.211 284.623 817.437 296.605C797.305 317.089 776.488 338.272 751.602 353.643C741 360.193 729.749 365.644 718.32 369.803Z" fill="#30323A"/>
<path d="M704.631 377.018C678.058 386.69 650.652 388.981 625.843 383.17C613.749 380.337 602.353 375.762 591.001 369.184C580.895 363.327 571.061 356.006 560.935 346.801C542.139 329.715 525.221 308.597 508.856 288.175C497.991 274.615 486.757 260.595 475.124 247.949C426.221 194.801 361.598 158.991 293.16 147.118C223.468 135.028 149.438 148.753 90.0496 184.77C42.2281 213.774 4.61342 258.618 -13.1468 307.805L-13.5677 307.653C-9.1497 295.416 -3.40105 283.248 3.5159 271.485C10.3157 259.924 18.2736 248.704 27.169 238.137C44.8998 217.076 66.5649 198.488 89.8178 184.385C119.797 166.202 152.929 153.704 188.295 147.234C205.553 144.078 223.205 142.426 240.762 142.328C258.378 142.229 276.033 143.691 293.236 146.675C327.47 152.614 360.789 164.516 392.267 182.05C423.346 199.362 451.334 221.431 475.451 247.645C487.097 260.301 498.336 274.328 509.204 287.891C541.937 328.742 575.781 370.982 625.943 382.735C662.067 391.197 703.731 382.414 740.253 358.641C764.667 342.75 783.842 321.99 804.142 300.011C817.315 285.752 830.934 271.007 846.019 257.869C935.44 180.485 1023.74 115.729 1108.46 65.3981C1138.91 47.3101 1166.9 33.5357 1194.03 23.2859C1225.88 11.2524 1256.83 3.88012 1288.66 0.736998C1317.15 -2.07625 1348.52 -1.22212 1381.92 3.27601C1411.49 7.25919 1442.45 14.1755 1471.46 23.2804L1471.32 23.7078C1408.85 4.10169 1342.29 -4.11066 1288.71 1.18051C1229.59 7.01788 1174.08 26.9426 1108.69 65.78C1023.99 116.097 935.712 180.838 846.313 258.203C831.246 271.324 817.633 286.059 804.47 300.31C785.044 321.341 764.957 343.088 740.496 359.009C728.949 366.536 716.876 372.562 704.631 377.018Z" fill="#30323A"/>
<path d="M690.887 384.207C685.379 386.211 679.825 387.901 674.273 389.254C653.46 394.322 633.262 394.69 614.246 390.347C602.255 387.61 590.949 383.138 579.678 376.676C569.644 370.924 559.875 363.717 549.807 354.643C531.126 337.8 514.292 316.956 498.013 296.798C487.514 283.8 476.66 270.356 465.462 258.189C417.271 205.829 354.089 170.197 287.551 157.857C219.149 145.172 146.468 157.902 88.1456 192.782C41.1412 220.896 3.50741 266.462 -12.5269 314.674L-12.9992 314.517C-5.05241 290.619 8.43911 266.777 26.0145 245.568C43.4373 224.543 64.8335 206.142 87.8902 192.353C117.392 174.709 149.991 162.727 184.784 156.742C201.72 153.828 219.04 152.404 236.265 152.506C253.518 152.607 270.805 154.242 287.643 157.364C321.055 163.561 353.607 175.566 384.397 193.046C414.677 210.236 442.074 232.039 465.831 257.849C477.039 270.028 487.9 283.476 498.404 296.481C530.969 336.808 564.644 378.506 614.36 389.857C650.963 398.216 692.792 388.78 729.124 363.969C753.426 347.374 773.053 324.86 792.037 303.089C806.291 286.742 821.031 269.836 837.906 255.112C926.865 178.032 1016.18 115.223 1103.36 68.4338C1133.96 52.008 1162.95 39.5838 1191.99 30.4484C1224.28 20.2904 1256.12 14.3227 1289.33 12.2061C1356.35 7.9341 1429.26 22.193 1478.62 34.9058L1478.5 35.3896C1429.17 22.6852 1356.32 8.43718 1289.37 12.7035C1226.57 16.7066 1167.54 34.5557 1103.59 68.8729C1016.44 115.647 927.165 178.432 838.234 255.489C821.384 270.191 806.657 287.081 792.416 303.418C773.412 325.215 753.762 347.753 729.407 364.382C717.332 372.626 704.25 379.343 690.887 384.207Z" fill="#30323A"/>
<path d="M677.383 391.369C672.669 393.085 667.923 394.564 663.167 395.794C642.221 401.214 621.859 401.798 602.645 397.522C590.756 394.878 579.536 390.508 568.341 384.16C558.376 378.51 548.669 371.417 538.66 362.47C520.085 345.868 503.336 325.293 487.135 305.394C477.012 292.961 466.547 280.105 455.795 268.428C408.306 216.844 346.561 181.391 281.938 168.594C214.824 155.307 143.493 167.042 86.2359 200.795C39.3191 228.454 2.62832 273.591 -11.9104 321.543L-12.4356 321.384C-5.28524 297.795 7.60934 274.149 24.8542 253C41.9676 232.015 63.0964 213.797 85.9582 200.319C114.981 183.21 147.047 171.748 181.269 166.248C197.882 163.58 214.87 162.378 231.764 162.681C248.657 162.984 265.573 164.791 282.045 168.054C346.782 180.872 408.633 216.388 456.201 268.056C466.965 279.746 477.435 292.609 487.562 305.048C519.974 344.859 553.487 386.026 602.765 396.985C639.797 405.222 681.79 395.133 717.982 369.305C742.355 351.912 761.722 328.48 780.452 305.822C795.6 287.494 811.266 268.542 829.773 252.362C872.709 215.113 916.869 181.059 961.03 151.142C1006.88 120.085 1053.04 93.2785 1098.23 71.4735C1129.1 56.582 1159.1 45.5124 1189.96 37.6327C1222.56 29.3072 1255.28 24.7437 1289.99 23.6806C1355.14 21.6824 1428.84 34.8448 1485.77 46.5344L1485.66 47.0729C1428.76 35.3879 1355.1 22.2346 1290.01 24.2296C1223.48 26.2693 1160.83 41.8833 1098.48 71.9698C1008.89 115.195 918.607 176.027 830.139 252.777C811.664 268.927 796.013 287.861 780.879 306.17C762.126 328.857 742.737 352.316 718.303 369.752C705.575 378.834 691.642 386.177 677.383 391.369Z" fill="#30323A"/>
<path d="M663.978 398.517C660.022 399.957 656.043 401.227 652.055 402.321C630.976 408.1 610.45 408.9 591.047 404.699C579.256 402.145 568.119 397.874 556.997 391.641C547.1 386.092 537.451 379.108 527.496 370.287C509.025 353.922 492.351 333.61 476.225 313.968C466.492 302.111 456.427 289.853 446.13 278.671C399.329 227.853 339.025 192.575 276.324 179.334C210.498 165.434 140.519 176.179 84.3281 208.808C38.1703 235.611 1.53252 281.439 -11.2915 328.406L-11.8709 328.249C-5.51448 304.975 6.78234 281.523 23.6958 260.432C40.4921 239.486 61.3543 221.454 84.0267 208.288C112.571 191.714 144.104 180.77 177.752 175.758C194.043 173.332 210.699 172.358 227.261 172.863C243.791 173.366 260.339 175.345 276.447 178.746C308.203 185.452 339.221 197.663 368.642 215.04C397.313 231.975 423.532 253.246 446.572 278.262C456.881 289.455 466.951 301.722 476.689 313.585C508.955 352.89 542.32 393.534 591.173 404.113C628.038 412.094 671.278 401.077 706.841 374.64C731.403 356.381 750.624 331.952 769.211 308.328C785.136 288.088 801.604 267.157 821.647 249.609C864.413 212.462 908.968 178.809 954.072 149.586C1000.38 119.584 1047.16 94.3234 1093.12 74.5093C1124.33 61.0527 1155.36 51.3454 1187.97 44.8335C1220.72 38.2931 1254.3 35.1261 1290.65 35.1506C1349.02 35.1902 1413.68 45.5207 1470.73 54.6372C1478.42 55.8669 1485.68 57.0274 1492.91 58.1602L1492.82 58.7525C1485.59 57.6175 1478.32 56.4569 1470.63 55.2281C1413.61 46.1165 1348.98 35.7868 1290.64 35.7491C1218.36 35.6998 1155.67 48.191 1093.36 75.0601C1002.64 114.174 908.817 174.686 822.041 250.061C802.042 267.572 785.592 288.481 769.683 308.7C751.07 332.354 731.825 356.815 707.198 375.12C693.85 385.046 679.098 393.014 663.978 398.517Z" fill="#30323A"/>
<path d="M650.654 405.661C647.429 406.835 644.186 407.896 640.938 408.835C619.725 414.979 599.035 416.003 579.447 411.874C567.751 409.41 556.691 405.235 545.642 399.11C535.81 393.66 526.215 386.782 516.311 378.084C497.934 361.948 481.332 341.894 465.277 322.503C455.946 311.234 446.296 299.579 436.468 288.909C390.341 238.839 331.474 203.738 270.712 190.071C206.176 175.555 137.548 185.305 82.4218 216.82C36.2995 243.19 0.629163 288.577 -10.6733 335.27L-11.3062 335.116C-5.74916 312.157 5.95305 288.9 22.5357 267.862C39.0126 246.957 59.6083 229.111 82.0982 216.254C110.161 200.21 141.162 189.783 174.24 185.263C190.208 183.08 206.535 182.331 222.767 183.039C238.93 183.746 255.11 185.899 270.852 189.438C301.778 196.393 332.03 208.708 360.768 226.039C388.627 242.839 414.256 263.842 436.942 288.47C446.783 299.151 456.439 310.812 465.776 322.089C497.911 360.902 531.14 401.036 579.581 411.238C616.791 419.076 660.201 407.385 695.703 379.973C720.466 360.85 739.564 335.424 758.03 310.837C774.688 288.659 791.912 265.724 813.524 246.853C855.915 209.831 900.856 176.571 947.097 147.997C993.769 119.156 1041.18 95.4518 1088.01 77.5441C1090.34 76.6563 1092.67 75.7813 1095.01 74.9321C1154.26 53.3671 1216.86 44.3608 1291.31 46.6197C1337.51 48.0226 1387.14 54.8292 1435.14 61.4104C1457.96 64.538 1479.52 67.4946 1500.06 69.7857L1499.99 70.4334C1479.44 68.1425 1457.88 65.1854 1435.06 62.0563C1387.07 55.477 1337.46 48.6745 1291.29 47.2722C1214 44.9257 1149.49 54.7409 1088.24 78.1517C994.501 113.994 899.653 172.5 813.952 247.342C792.393 266.17 775.189 289.074 758.55 311.227C740.055 335.848 720.933 361.309 696.099 380.487C682.151 391.26 666.606 399.855 650.654 405.661Z" fill="#30323A"/>
<path d="M637.403 412.803C634.881 413.721 632.353 414.568 629.815 415.34C608.467 421.852 587.617 423.101 567.846 419.054C556.24 416.678 545.259 412.597 534.275 406.579C524.504 401.225 514.961 394.453 505.101 385.872C486.813 369.957 470.275 350.159 454.282 331.009C445.368 320.334 436.15 309.298 426.798 299.154C381.329 249.816 323.901 214.894 265.092 200.813C201.846 185.672 134.569 194.428 80.5074 224.838C35.0929 250.383 -0.456273 296.426 -10.0595 342.135L-10.7464 341.991C-1.10031 296.091 34.5836 249.866 80.167 224.226C107.749 208.709 138.217 198.8 170.725 194.772C186.371 192.832 202.366 192.31 218.266 193.22C234.073 194.125 249.883 196.451 265.259 200.131C295.351 207.335 324.836 219.752 352.898 237.039C379.937 253.696 404.976 274.436 427.319 298.68C436.682 308.838 445.906 319.883 454.826 330.56C486.843 368.893 519.949 408.53 567.991 418.367C605.518 426.051 649.097 413.693 684.566 385.311C709.64 365.245 728.728 338.736 747.186 313.102C764.481 289.084 782.363 264.249 805.4 244.102C847.658 207.15 893.013 174.319 940.205 146.513C987.359 118.732 1035.37 96.5494 1082.9 80.5808C1143.79 60.1276 1208.27 53.1913 1291.97 58.093C1328.97 60.2589 1368.77 65.4008 1407.27 70.372C1442.63 74.9403 1476.04 79.2565 1507.21 81.4109L1507.16 82.1123C1475.97 79.9545 1442.56 75.6371 1407.18 71.0675C1368.7 66.0967 1328.91 60.9576 1291.93 58.791C1208.32 53.8946 1143.93 60.8192 1083.13 81.2421C987.074 113.509 891.196 170.009 805.867 244.624C782.888 264.716 765.03 289.519 747.761 313.504C729.275 339.177 710.159 365.724 685.008 385.852C670.476 397.481 654.157 406.705 637.403 412.803Z" fill="#30323A"/>
<path d="M624.214 419.943C622.377 420.612 620.538 421.242 618.691 421.833C597.21 428.717 576.2 430.197 556.251 426.231C544.731 423.941 533.822 419.953 522.899 414.036C513.182 408.774 503.688 402.101 493.869 393.639C475.659 377.94 459.182 358.385 443.247 339.475C434.766 329.41 425.997 319.004 417.137 309.396C371.662 260.069 317.145 226.236 259.48 211.553C197.525 195.777 131.598 203.543 78.6029 232.853C33.1724 257.98 -1.38565 303.569 -9.43655 348.994L-10.179 348.863C-6.22433 326.544 4.28466 303.674 20.2109 282.727C36.0405 261.908 56.1053 244.433 78.2372 232.192C105.34 217.202 135.273 207.809 167.208 204.274C182.533 202.578 198.198 202.282 213.765 203.396C229.211 204.5 244.653 207 259.663 210.821C288.917 218.27 317.635 230.791 345.022 248.037C371.236 264.545 395.685 285.017 417.69 308.884C426.56 318.507 435.337 328.918 443.822 338.989C475.732 376.856 508.731 416.015 556.396 425.491C594.219 433.011 637.968 419.984 673.424 390.643C698.843 369.608 717.96 341.997 736.45 315.294C754.34 289.457 772.838 262.74 797.273 241.348C839.405 204.46 885.184 172.067 933.335 145.068C980.98 118.354 1029.58 97.6791 1077.79 83.6176C1110.46 74.0898 1144.58 68.5208 1182.12 66.5886C1214.32 64.9312 1249.44 65.8779 1292.63 69.5657C1321.96 72.0701 1353.37 76.1575 1383.74 80.1109C1428.08 85.8811 1473.92 91.846 1514.35 93.0419L1514.33 93.7938C1473.86 92.5981 1428 86.6299 1383.65 80.8555C1353.28 76.9042 1321.88 72.8166 1292.57 70.314C1228.89 64.877 1153.59 62.2905 1078 84.3376C981.051 112.618 881.53 168.577 797.768 241.912C773.405 263.244 754.933 289.922 737.068 315.722C718.549 342.467 699.401 370.123 673.902 391.224C658.821 403.705 641.745 413.562 624.214 419.943Z" fill="#30323A"/>
<path d="M1521.5 105.472C1472.52 105.844 1416.75 98.1955 1362.83 90.7952C1339.67 87.6178 1315.73 84.3331 1293.21 81.8344C1210.99 72.7163 1142.06 70.1787 1072.88 87.4304C1052.99 92.3901 1033.03 98.5285 1013.18 105.753C934.021 134.564 856.376 180.73 789.676 239.197C763.947 261.749 744.892 290.29 726.463 317.89C707.881 345.718 688.669 374.494 662.805 396.589C646.178 410.792 627.075 421.763 607.56 428.318C585.947 435.576 564.782 437.29 544.651 433.406C533.214 431.201 522.371 427.301 511.503 421.484C501.837 416.313 492.386 409.737 482.605 401.384C464.465 385.892 448.039 366.574 432.151 347.892C424.122 338.451 415.823 328.689 407.47 319.635C362.624 271.011 309.507 237.347 253.86 222.288C193.202 205.873 128.625 212.644 76.6921 240.867C31.9175 265.2 -2.4459 311.409 -8.81996 355.854L-9.61632 355.739C-3.20921 311.055 31.3207 264.608 76.3073 240.161C102.929 225.693 132.33 216.817 163.693 213.778C178.697 212.325 194.031 212.255 209.268 213.574C224.354 214.879 239.428 217.549 254.072 221.514C282.486 229.203 310.436 241.829 337.15 259.035C362.531 275.384 386.389 295.59 408.063 319.091C416.425 328.157 424.732 337.924 432.763 347.371C464.588 384.795 497.495 423.494 544.802 432.617C582.905 439.965 626.82 426.269 662.282 395.978C688.062 373.955 707.243 345.228 725.794 317.445C744.251 289.8 763.337 261.214 789.147 238.59C855.912 180.066 933.665 133.837 1012.91 104.996C1032.79 97.7572 1052.76 91.6171 1072.69 86.6494C1105.93 78.3592 1141.1 74.1882 1180.2 73.8937C1220.66 73.5917 1261.89 77.5511 1293.3 81.0349C1315.82 83.5333 1339.77 86.8187 1362.93 89.9967C1416.83 97.3916 1472.57 105.038 1521.49 104.666L1521.5 105.472Z" fill="#30323A"/>
<path d="M1528.67 117.151C1471.62 119.582 1406.63 109.915 1343.78 100.565C1326.46 97.9877 1310.1 95.5551 1293.85 93.3579C1214.27 82.5931 1142.33 74.9531 1067.76 90.5264C966.331 111.712 864.7 163.546 781.587 236.483C754.508 260.245 734.89 290.641 715.918 320.034C697.253 348.953 677.949 378.856 651.708 401.957C635.11 416.568 615.991 427.92 596.426 434.796C585.986 438.463 575.452 440.843 565.119 441.865C554.182 442.947 543.393 442.516 533.053 440.583C521.69 438.46 510.908 434.646 500.09 428.926C490.471 423.839 481.054 417.358 471.305 409.108C453.226 393.811 436.841 374.72 420.996 356.257C413.443 347.456 405.632 338.356 397.807 329.876C353.568 281.929 301.851 248.437 248.245 233.027C188.877 215.959 125.651 221.736 74.7825 248.88C30.6386 272.436 -3.48335 319.244 -8.20069 362.709L-9.05155 362.617C-7.8719 351.733 -4.89322 340.534 -0.201795 329.328C4.35851 318.436 10.4451 307.756 17.8853 297.589C25.2955 287.461 33.8666 278.091 43.3588 269.738C53.0535 261.209 63.4904 253.938 74.38 248.126C100.52 234.179 129.388 225.818 160.181 223.278C174.865 222.067 189.868 222.225 204.775 223.749C219.5 225.254 234.204 228.101 248.483 232.204C302.238 247.659 354.092 281.231 398.436 329.294C406.271 337.787 414.087 346.893 421.644 355.698C453.398 392.699 486.234 430.958 533.211 439.74C571.575 446.912 615.661 432.544 651.141 401.31C677.293 378.288 696.561 348.434 715.196 319.566C734.2 290.122 753.852 259.677 781.02 235.836C822.935 199.053 869.578 167.58 919.652 142.29C943.815 130.085 968.669 119.42 993.527 110.595C1018.22 101.822 1043.14 94.788 1067.58 89.683C1101.44 82.6115 1137.65 79.8463 1178.29 81.2322C1214.17 82.4561 1250.48 86.6238 1293.96 92.5035C1310.22 94.7028 1326.58 97.1353 1343.9 99.7108C1406.71 109.054 1471.67 118.717 1528.63 116.29L1528.67 117.151Z" fill="#30323A"/>
<path d="M1535.84 128.829C1506.84 131.021 1473.1 129.938 1432.7 125.521C1397.04 121.621 1360.87 115.696 1325.89 109.967C1315.04 108.188 1304.79 106.51 1294.49 104.878C1215.15 92.3048 1140.22 80.4304 1062.63 93.6187C1031.06 98.9871 999.152 107.584 967.749 119.014C897.592 144.549 829.879 184.236 773.496 233.77C745.079 258.734 724.915 290.979 705.414 322.163C686.646 352.176 667.237 383.209 640.613 407.327C624.038 422.344 604.907 434.08 585.293 441.271C574.789 445.11 564.203 447.647 553.807 448.789C542.783 449.999 531.901 449.655 521.461 447.765C474.474 439.262 441.581 401.292 409.773 364.572C402.72 356.429 395.425 348.009 388.146 340.123C344.487 292.824 294.169 259.504 242.628 243.77C184.557 226.04 122.684 230.827 72.8745 256.901C28.6373 280.057 -4.44671 326.388 -7.57924 369.567L-8.48291 369.501C-7.7061 358.788 -5.07576 347.708 -0.665826 336.568C3.61194 325.76 9.46439 315.147 16.7227 305.025C31.3454 284.635 51.1359 267.26 72.4552 256.101C98.1139 242.668 126.447 234.825 156.668 232.786C171.031 231.817 185.704 232.205 200.278 233.934C214.643 235.64 228.979 238.658 242.891 242.907C269.612 251.066 296.028 263.895 321.407 281.042C345.09 297.043 367.766 316.713 388.808 339.511C396.097 347.407 403.395 355.831 410.453 363.98C442.159 400.583 474.944 438.43 521.618 446.875C560.233 453.862 604.489 438.827 640.001 406.657C666.532 382.622 685.907 351.644 704.642 321.684C724.177 290.446 744.378 258.143 772.894 233.091C814.718 196.347 861.799 165.352 912.826 140.967C937.26 129.291 962.439 119.26 987.661 111.147C1012.63 103.121 1037.8 96.9223 1062.48 92.7282C1097.46 86.7809 1133.66 85.4738 1176.38 88.614C1216 91.525 1257.77 98.1459 1294.62 103.987C1304.93 105.62 1315.18 107.298 1326.04 109.076C1397.32 120.751 1471.02 132.823 1535.77 127.929L1535.84 128.829Z" fill="#30323A"/>
<path d="M1543.01 140.506C1470.47 148.246 1384.57 132.642 1308.79 118.873C1304.2 118.039 1299.64 117.212 1295.12 116.395C1290.84 115.62 1286.58 114.847 1282.34 114.078C1205.09 100.055 1132.13 86.8107 1057.51 96.7072C953.223 110.538 846.754 159.504 765.402 231.05C735.653 257.212 714.953 291.305 694.935 324.274C676.048 355.381 656.518 387.546 629.513 412.688C612.948 428.109 593.805 440.225 574.148 447.73C563.6 451.754 552.947 454.438 542.484 455.698C531.374 457.037 520.398 456.781 509.859 454.939C463.122 446.764 430.249 409.166 398.459 372.805C391.933 365.342 385.184 357.624 378.478 350.36C335.369 303.675 286.448 270.528 237.008 254.503C180.237 236.101 119.715 239.894 70.9623 264.91C27.306 287.309 -5.46622 334.202 -6.96509 376.411L-7.91989 376.377C-7.5459 365.834 -5.26245 354.87 -1.134 343.795C2.86354 333.071 8.47872 322.524 15.5574 312.446C29.846 292.1 49.3693 274.916 70.5269 264.058C95.7044 251.14 123.506 243.809 153.154 242.277C167.197 241.549 181.541 242.164 195.784 244.102C209.788 246.008 223.757 249.2 237.302 253.591C263.172 261.977 288.821 274.91 313.537 292.034C336.349 307.838 358.435 327.243 379.181 349.71C385.898 356.982 392.649 364.705 399.18 372.174C430.862 408.41 463.621 445.878 510.024 453.996C548.882 460.793 593.306 445.088 628.86 411.986C655.77 386.933 675.264 354.825 694.119 323.775C714.174 290.745 734.912 256.589 764.772 230.329C785.804 211.833 808.674 194.661 832.747 179.291C856.046 164.417 880.694 151.083 906.009 139.662C930.712 128.517 956.215 119.117 981.805 111.722C1007.04 104.431 1032.47 99.0585 1057.38 95.7552C1091.53 91.2271 1126.83 91.1031 1168.48 95.3686C1205.57 99.1666 1242.95 105.95 1282.51 113.132C1286.75 113.902 1291.01 114.675 1295.3 115.45C1299.82 116.266 1304.37 117.093 1308.96 117.928C1384.68 131.683 1470.5 147.276 1542.91 139.55L1543.01 140.506Z" fill="#30323A"/>
<path d="M1550.19 152.181C1514.83 156.994 1473.57 156.375 1424.05 150.287C1379.38 144.797 1333.02 135.435 1295.76 127.914C1286.75 126.095 1277.73 124.238 1269.01 122.442C1194.93 107.19 1124.96 92.7836 1052.38 99.7983C946.32 110.049 838.772 156.897 757.312 228.334C726.333 255.714 705.12 291.591 684.607 326.284C665.55 358.515 645.847 391.84 618.418 418.05C601.862 433.873 582.701 446.366 563.007 454.184C552.408 458.392 541.698 461.225 531.17 462.608C519.976 464.076 508.905 463.91 498.265 462.114C451.737 454.258 418.857 416.996 387.058 380.963C381.093 374.202 374.925 367.212 368.816 360.6C325.612 313.832 279.373 281.746 231.388 265.238C175.924 246.156 116.754 248.959 69.0506 272.927C25.9538 294.582 -6.45982 342.016 -6.34579 383.261L-7.35236 383.265C-7.40889 362.873 0.313381 340.36 14.3911 319.879C28.3434 299.576 47.5963 282.582 68.6007 272.028C93.2978 259.619 120.564 252.805 149.641 251.777C163.365 251.291 177.377 252.136 191.291 254.281C204.937 256.387 218.538 259.753 231.716 264.288C256.728 272.894 281.609 285.932 305.67 303.036C327.594 318.625 349.089 337.762 369.558 359.917C375.674 366.537 381.847 373.533 387.815 380.295C419.499 416.199 452.26 453.326 498.436 461.12C537.526 467.72 582.12 451.348 617.725 417.321C645.052 391.205 664.722 357.939 683.743 325.768C704.296 291.006 725.552 255.059 756.649 227.573C777.736 209.084 800.778 192.039 825.136 176.913C848.639 162.319 873.574 149.382 899.246 138.459C924.23 127.83 950.042 119.049 975.967 112.365C1001.48 105.788 1027.15 101.22 1052.28 98.7912C1085.48 95.5837 1119.68 96.5072 1159.93 101.698C1195.69 106.313 1231.4 113.665 1269.21 121.45C1277.94 123.246 1286.96 125.104 1295.96 126.922C1373.52 142.581 1470.04 162.068 1550.05 151.178L1550.19 152.181Z" fill="#30323A"/>
<path d="M1557.36 163.859C1520.72 169.867 1478.36 169.794 1427.88 163.634C1381.69 157.997 1335.79 148.188 1296.4 139.434C1283.46 136.559 1270.57 133.584 1258.11 130.708C1186.29 114.134 1118.45 98.4789 1047.25 102.891C1000.22 105.806 953.095 115.909 908.188 132.253C849.787 153.51 795.13 185.317 749.225 225.62C716.919 254.195 695.182 291.926 674.163 328.414C654.97 361.729 635.125 396.178 607.325 423.419C590.77 439.64 571.593 452.511 551.863 460.64C541.215 465.027 530.445 468.012 519.854 469.517C508.576 471.118 497.413 471.043 486.673 469.297C440.311 461.753 407.389 424.784 375.548 389.031C370.183 383.005 364.632 376.772 359.154 370.847C316.424 324.615 271.547 292.698 225.77 275.979C171.617 256.202 113.797 258.014 67.1444 280.947C23.8718 302.219 -7.45653 349.149 -5.72499 390.111L-6.78164 390.156C-7.62874 370.088 -0.524362 347.772 13.2264 327.31C26.8422 307.052 45.8248 290.247 66.6761 279.997C90.8956 268.091 117.627 261.795 146.13 261.277C172.594 260.796 200.259 265.536 226.132 274.986C272.07 291.761 317.086 323.773 359.932 370.128C365.415 376.062 370.969 382.296 376.339 388.326C408.056 423.941 440.851 460.768 486.844 468.253C526.163 474.649 570.926 457.607 606.586 422.665C634.284 395.524 654.093 361.139 673.247 327.886C694.31 291.324 716.09 253.518 748.527 224.827C769.617 206.31 792.81 189.373 817.46 174.482C841.145 160.174 866.368 147.639 892.424 137.226C917.679 127.133 943.811 118.99 970.104 113.023C995.882 107.171 1021.82 103.408 1047.19 101.836C1118.54 97.4146 1186.45 113.088 1258.35 129.679C1270.81 132.555 1283.7 135.528 1296.63 138.402C1384.59 157.95 1477.17 175.933 1557.2 162.816L1557.36 163.859Z" fill="#30323A"/>
<path d="M1564.54 175.535C1483.02 191.05 1387.8 172.89 1297.04 150.954C1280.73 147.013 1264.55 142.876 1248.9 138.878C1178.7 120.933 1112.4 103.984 1042.12 105.983C990.491 107.451 938.98 117.573 890.502 135.218C835.398 155.274 784.204 185.048 741.131 222.908C707.495 252.68 685.242 292.27 663.719 330.552C644.385 364.947 624.392 400.51 596.224 428.786C579.667 445.405 560.47 458.65 540.709 467.088C530.009 471.656 519.184 474.797 508.532 476.421C497.171 478.154 485.913 478.171 475.074 476.476C428.819 469.236 395.818 432.504 363.904 396.982C359.182 391.724 354.297 386.288 349.491 381.09C306.589 334.693 264.28 303.823 220.145 286.715C167.308 266.234 110.844 267.052 65.229 288.962C22.4634 309.504 -8.43508 356.941 -5.11116 396.955L-6.21622 397.046C-7.85535 377.306 -1.36677 355.177 12.0555 334.739C25.3318 314.523 44.0448 297.91 64.7485 287.965C88.4881 276.562 114.687 270.776 142.615 270.773C168.426 270.77 195.372 275.925 220.545 285.682C243.827 294.707 267.172 307.951 289.931 325.046C310.006 340.122 330.318 358.727 350.301 380.338C355.114 385.542 359.999 390.98 364.726 396.241C396.511 431.62 429.379 468.202 475.245 475.38C514.789 481.569 559.721 463.858 595.438 428.004C623.499 399.838 643.453 364.338 662.751 330.009C684.318 291.645 706.619 251.973 740.395 222.076C761.495 203.53 784.837 186.7 809.773 172.057C833.642 158.038 859.15 145.913 885.587 136.017C911.105 126.466 937.567 118.957 964.228 113.707C990.274 108.577 1016.47 105.606 1042.09 104.878C1112.52 102.874 1178.9 119.841 1249.18 137.808C1264.82 141.806 1281 145.942 1297.3 149.881C1387.94 171.788 1483.02 189.927 1564.33 174.451L1564.54 175.535Z" fill="#30323A"/>
<path d="M1571.71 187.211C1532.63 195.631 1488.08 196.653 1435.54 190.334C1384.72 184.226 1335.17 172.235 1297.67 162.472C1278.41 157.456 1259.35 152.116 1240.91 146.953C1171.88 127.613 1106.67 109.346 1036.99 109.072C926.225 108.636 812.599 150.176 733.036 220.188C698.072 251.16 675.303 292.611 653.283 332.698C633.801 368.165 613.654 404.842 585.126 434.149C568.563 451.167 549.347 464.783 529.556 473.526C518.807 478.277 507.925 481.569 497.21 483.315C485.766 485.18 474.416 485.293 463.476 483.648C417.26 476.705 384.136 440.145 352.103 404.789C348.075 400.344 343.911 395.745 339.822 391.327C297.284 345.349 256.298 314.64 214.518 297.445C163.003 276.245 107.892 276.074 63.3145 296.975C21.03 316.802 -9.39039 364.719 -4.49799 403.792L-5.64664 403.936C-8.07782 384.523 -2.20417 362.584 10.8871 342.162C23.8207 321.987 42.2642 305.567 62.8256 295.926C86.0875 285.018 111.752 279.75 139.105 280.262C164.263 280.734 190.494 286.304 214.961 296.375C237.367 305.598 259.945 318.944 282.065 336.045C301.43 351.017 320.602 368.843 340.674 390.539C344.767 394.963 348.934 399.561 352.964 404.011C384.86 439.216 417.842 475.621 463.648 482.502C503.415 488.477 548.516 470.098 584.296 433.339C612.714 404.145 632.821 367.54 652.267 332.138C663.293 312.066 674.696 291.31 687.496 272.103C701.868 250.543 716.513 233.276 732.268 219.319C753.382 200.739 776.872 184.022 802.086 169.634C826.14 155.908 851.931 144.194 878.744 134.824C929.712 117.012 984.434 107.706 1036.99 107.911C1106.83 108.187 1172.11 126.474 1241.22 145.836C1259.65 150.998 1278.7 156.335 1297.96 161.349C1384.89 183.984 1485.37 204.621 1571.47 186.076L1571.71 187.211Z" fill="#30323A"/>
<path d="M1578.89 198.885C1557.98 203.887 1535.02 206.742 1510.64 207.371C1488.58 207.939 1464.6 206.701 1439.37 203.687C1398.32 198.787 1353.5 189.349 1298.31 173.989C1276.39 167.888 1254.75 161.307 1233.82 154.942C1165.61 134.199 1101.19 114.603 1031.85 112.158C972.579 110.067 912.754 119.949 857.827 139.941C808.222 157.995 762.61 184.289 724.946 217.47C688.649 249.644 665.367 292.963 642.848 334.859C623.211 371.392 602.907 409.171 574.029 439.512C557.456 456.925 538.218 470.911 518.4 479.962C495.82 490.275 473.437 493.928 451.881 490.829C405.621 484.173 372.324 447.705 340.126 412.438C336.856 408.855 333.474 405.152 330.158 401.573C287.319 355.293 248.786 325.619 208.892 308.184C158.712 286.253 104.953 285.091 61.3998 304.998C18.852 324.445 -10.435 371.833 -3.88676 410.634L-5.0796 410.836C-8.29967 391.752 -3.04644 370.002 9.71222 349.591C15.8309 339.803 23.3277 330.881 31.9927 323.075C40.913 315.037 50.6395 308.583 60.8971 303.897C83.6835 293.483 108.813 288.725 135.591 289.76C160.102 290.705 185.618 296.692 209.376 307.076C249.429 324.581 288.09 354.347 331.044 400.751C334.361 404.333 337.745 408.041 341.017 411.623C373.075 446.732 406.221 483.038 452.052 489.633C492.038 495.387 537.308 476.339 573.153 438.682C601.917 408.461 622.183 370.756 641.783 334.291C653.06 313.309 664.721 291.611 677.88 271.563C692.65 249.059 707.784 231.071 724.143 216.569C745.273 197.954 768.911 181.35 794.399 167.225C818.636 153.79 844.709 142.499 871.893 133.659C923.352 116.93 978.679 109.079 1031.89 110.956C1101.39 113.407 1165.88 133.022 1234.17 153.792C1255.09 160.154 1276.72 166.732 1298.63 172.831C1381.27 195.829 1487.78 219.443 1578.61 197.715L1578.89 198.885Z" fill="#30323A"/>
<path d="M1586.07 210.561C1564.61 216.18 1541.09 219.491 1516.15 220.402C1493.51 221.229 1468.96 220.098 1443.19 217.041C1401 212.038 1353.81 201.724 1298.94 185.508C1274.6 178.312 1250.6 170.454 1227.39 162.854C1159.76 140.706 1095.88 119.786 1026.72 115.249C963.521 111.101 899.998 120.506 842.466 141.446C795.464 158.554 752.463 183.35 716.855 214.754C679.224 248.132 655.426 293.329 632.414 337.038C612.622 374.631 592.154 413.503 562.936 444.874C546.347 462.681 527.09 477.038 507.246 486.391C484.556 497.083 462.025 500.991 440.289 498.004C419.502 495.147 399.349 485.853 378.678 469.589C360.417 455.22 343.898 437.251 327.922 419.87C325.483 417.217 322.963 414.474 320.494 411.808C291.391 380.384 251.764 341.429 203.266 318.911C154.426 296.236 102.02 294.086 59.487 313.008C39.7282 321.798 21.5517 338.076 9.61968 357.667C-2.63767 377.792 -7.21652 399.027 -3.27369 417.464L-4.50677 417.727C-6.54535 408.195 -6.35617 397.933 -3.94771 387.226C-1.64999 377.012 2.55377 366.847 8.54458 357.009C14.4767 347.268 21.8192 338.41 30.3684 330.68C39.1788 322.713 48.8031 316.38 58.975 311.853C81.2857 301.925 105.882 297.683 132.083 299.24C155.949 300.658 180.748 307.066 203.798 317.764C224.727 327.481 245.18 340.658 266.332 358.048C283.765 372.381 301.27 389.19 321.421 410.949C323.891 413.616 326.414 416.359 328.852 419.012C361.128 454.125 394.503 490.434 440.461 496.748C480.667 502.273 526.107 482.56 562.016 444.01C591.12 412.764 611.547 373.967 631.303 336.448C642.832 314.552 654.753 291.91 668.269 271.018C683.438 247.567 699.061 228.855 716.025 213.809C737.175 195.155 760.959 178.671 786.713 164.812C811.136 151.672 837.487 140.801 865.038 132.502C916.984 116.854 972.924 110.451 1026.81 113.988C1096.12 118.538 1160.08 139.481 1227.78 161.654C1250.98 169.252 1274.97 177.105 1299.3 184.297C1376.36 207.071 1489.9 234.443 1585.75 209.337L1586.07 210.561Z" fill="#30323A"/>
<path d="M1593.24 222.233C1571.24 228.47 1547.16 232.237 1521.67 233.428C1498.44 234.514 1473.32 233.493 1447.02 230.395C1403.24 225.239 1355.01 214.323 1299.58 197.025C1272.98 188.724 1246.79 179.555 1221.46 170.688C1154.21 147.143 1090.69 124.904 1021.59 118.336C954.641 111.972 887.643 120.757 827.783 142.544C783.165 158.784 742.517 182.239 708.766 212.04C669.796 246.626 645.487 293.708 621.979 339.241C602.026 377.884 581.395 417.841 551.843 450.24C535.238 468.442 515.96 483.164 496.09 492.816C491.475 495.057 486.864 497.017 482.265 498.691C464.141 505.288 446.181 507.47 428.695 505.181C407.794 502.447 387.479 493.178 366.587 476.848C348.157 462.438 331.527 444.444 315.447 427.042C313.905 425.373 312.367 423.709 310.832 422.053C279.969 388.749 242.385 351.727 197.638 329.646C150.151 306.212 99.1006 303.072 57.5737 321.028C37.9655 329.507 20.0796 345.572 8.50001 365.105C-3.4075 385.194 -7.37203 406.216 -2.6619 424.301L-3.93039 424.632C-6.36949 415.269 -6.53263 405.122 -4.41677 394.472C-2.4039 384.343 1.56321 374.238 7.37188 364.438C19.091 344.671 37.1982 328.41 57.055 319.825C78.8923 310.383 102.954 306.652 128.574 308.736C151.802 310.627 175.884 317.451 198.218 328.471C218.237 338.349 237.943 351.625 258.467 369.061C274.643 382.802 291.588 399.358 311.793 421.163C313.327 422.818 314.865 424.483 316.408 426.154C348.973 461.395 382.649 497.834 428.863 503.883C469.289 509.174 514.9 488.789 550.871 449.356C580.305 417.086 600.897 377.206 620.81 338.64C632.589 315.825 644.771 292.235 658.643 270.494C674.213 246.094 690.323 226.654 707.895 211.06C729.067 192.364 752.993 176.001 779.011 162.416C803.617 149.57 830.246 139.126 858.157 131.371C910.591 116.804 967.146 111.846 1021.71 117.033C1090.97 123.617 1154.56 145.881 1221.89 169.453C1247.21 178.316 1273.39 187.481 1299.97 195.777C1423.96 234.474 1517.04 242.481 1592.88 220.975L1593.24 222.233Z" fill="#30323A"/>
<path d="M1600.42 233.908C1577.88 240.765 1553.24 244.988 1527.18 246.462C1503.37 247.807 1477.69 246.897 1450.84 243.756C1405.56 238.458 1356.29 226.939 1300.21 208.544C1271.5 199.126 1243.24 188.613 1215.91 178.446C1148.89 153.517 1085.58 129.969 1016.45 121.423C897.604 106.733 779.555 139.592 700.673 209.323C660.358 245.122 635.537 294.098 611.53 341.459C591.417 381.145 570.619 422.179 540.744 455.6C524.121 474.196 504.822 489.283 484.927 499.235C462.029 510.689 439.207 515.102 417.101 512.357C396.01 509.739 375.46 500.451 354.276 483.969C335.619 469.452 318.846 451.361 302.625 433.866L301.167 432.292C270.901 399.653 235.01 362.941 192.008 340.374C145.885 316.17 96.1836 312.038 55.6576 329.041C36.1983 337.205 18.6032 353.058 7.37755 372.538C-4.01336 392.302 -7.44956 413.657 -2.05606 431.13L-3.35597 431.533C-6.19644 422.337 -6.71191 412.305 -4.88782 401.715C-3.15832 391.667 0.572163 381.623 6.19869 371.86C17.5703 352.128 35.405 336.065 55.1313 327.789C76.4959 318.828 100.025 315.606 125.066 318.222C147.656 320.583 171.023 327.827 192.64 339.17C235.835 361.837 271.825 398.646 302.166 431.37L303.624 432.943C336.566 468.475 370.631 505.217 417.266 511.01C457.915 516.058 503.696 495.006 539.729 454.696C569.485 421.409 590.241 380.455 610.315 340.846C622.347 317.11 634.786 292.564 649.018 269.975C664.988 244.622 681.591 224.449 699.77 208.307C720.966 189.569 745.035 173.326 771.309 160.021C796.099 147.471 823 137.453 851.269 130.25C904.184 116.763 961.362 113.244 1016.62 120.075C1048.17 123.975 1080.3 131.141 1117.73 142.627C1150.75 152.759 1182.63 164.616 1216.38 177.172C1243.7 187.334 1271.95 197.841 1300.64 207.252C1424.55 247.898 1522.48 256.192 1600.02 232.607L1600.42 233.908Z" fill="#30323A"/>
<path d="M1607.6 245.583C1584.52 253.059 1559.31 257.738 1532.69 259.494C1508.32 261.102 1482.06 260.302 1454.66 257.116C1407.96 251.685 1357.65 239.567 1300.85 220.064C1270.12 209.512 1239.88 197.626 1210.64 186.13C1143.74 159.829 1080.54 134.99 1011.32 124.513C890.488 106.229 771.334 136.919 692.586 206.611C650.923 243.626 625.586 294.505 601.085 343.707C580.808 384.424 559.841 426.527 529.654 460.969C513.011 479.955 493.688 495.409 473.767 505.654C450.768 517.484 427.803 522.156 405.509 519.54C384.521 517.077 364.051 508.029 342.925 491.878C324.992 478.168 309.028 461.422 291.505 442.539C257.033 405.387 225.325 372.863 186.376 351.108C141.63 326.115 93.2892 320.995 53.7443 337.064C34.4331 344.91 17.1255 360.549 6.25849 379.974C-4.78091 399.707 -7.5921 420.842 -1.44682 437.963L-2.77731 438.439C-6.016 429.412 -6.88463 419.493 -5.35776 408.961C-3.93256 399.14 -0.343833 388.878 5.02576 379.284C16.0467 359.586 33.6113 343.721 53.2133 335.756C74.1096 327.265 97.1058 324.558 121.561 327.71C143.52 330.539 166.171 338.204 187.066 349.875C226.196 371.732 257.984 404.336 292.542 441.58C321.904 473.219 358.443 512.592 405.675 518.138C464.59 525.051 511.261 479.809 528.591 460.037C558.656 425.734 579.584 383.715 599.82 343.079C612.101 318.416 624.803 292.913 639.392 269.468C655.765 243.156 672.859 222.251 691.649 205.558C712.873 186.776 737.083 170.654 763.607 157.634C788.577 145.379 815.751 135.793 844.369 129.142C897.766 116.734 955.569 114.653 1011.53 123.119C1042.69 127.834 1075.79 136.043 1112.72 148.215C1145.72 159.093 1178.99 172.171 1211.16 184.819C1240.39 196.308 1270.61 208.19 1301.31 218.731C1426.94 261.867 1526.98 270.214 1607.16 244.244L1607.6 245.583Z" fill="#30323A"/>
<path d="M1614.77 257.255C1591.15 265.35 1565.39 270.487 1538.2 272.525C1513.26 274.395 1486.44 273.705 1458.48 270.474C1433.24 267.558 1406.36 262.486 1378.59 255.399C1354.11 249.151 1328.17 241.136 1301.49 231.579C1268.82 219.88 1236.68 206.589 1205.59 193.733C1138.71 166.079 1075.54 139.96 1006.18 127.597C883.377 105.71 763.12 134.232 684.492 203.891C641.475 242.13 615.624 294.917 590.621 345.97C570.179 387.71 549.043 430.872 518.554 466.327C501.89 485.705 482.541 501.518 462.599 512.058C456.563 515.25 450.52 517.945 444.494 520.139C427.463 526.337 410.518 528.547 393.913 526.713C373.293 524.435 353.176 515.841 332.415 500.434C313.656 486.513 296.473 468.535 281.839 452.775L279.081 449.805C249.06 417.458 218.02 384.01 180.741 361.83C137.387 336.035 90.3958 329.933 51.8245 345.076C30.2893 353.533 10.9846 372.666 1.44848 395.009C-6.02477 412.517 -6.83874 430.194 -0.847216 444.783L-2.20116 445.339C-8.34623 430.385 -7.52694 412.307 0.100906 394.434C4.79931 383.426 11.9093 372.961 20.6608 364.173C29.6798 355.115 40.2718 348.04 51.2874 343.715C71.72 335.693 94.1791 333.498 118.049 337.188C139.383 340.489 161.321 348.574 181.486 360.571C218.948 382.86 250.062 416.386 280.152 448.809L282.91 451.78C316.282 487.716 349.896 520.379 394.073 525.258C453.315 531.8 500.086 485.558 517.444 465.371C547.81 430.06 568.906 386.983 589.306 345.326C601.841 319.732 614.801 293.266 629.753 268.96C646.531 241.687 664.117 220.043 683.519 202.796C704.77 183.968 729.12 167.967 755.89 155.239C781.041 143.281 808.481 134.126 837.443 128.034C891.316 116.702 949.752 116.052 1006.43 126.155C1037.65 131.718 1070.79 140.743 1107.77 153.744C1140.79 165.357 1174.02 179.093 1206.14 192.379C1237.22 205.226 1269.35 218.512 1301.98 230.2C1429.38 275.834 1531.54 284.229 1614.3 255.87L1614.77 257.255Z" fill="#30323A"/>
<path d="M1621.95 268.928C1597.79 277.641 1571.47 283.236 1543.71 285.556C1518.2 287.687 1490.81 287.107 1462.3 283.833C1436.47 280.867 1409.04 275.607 1380.77 268.203C1355.67 261.632 1329.21 253.185 1302.12 243.093C1267.58 230.228 1233.57 215.5 1200.68 201.253C1133.77 172.268 1070.56 144.889 1001.04 130.679C920.559 114.229 841.479 119.359 774.416 143.768C737.519 157.197 704.266 176.457 676.398 201.174C632.021 240.639 605.653 295.35 580.152 348.261C559.546 391.014 538.237 435.226 507.456 471.688C490.771 491.455 471.397 507.629 451.431 518.46C444.944 521.98 438.451 524.92 431.968 527.28C415.276 533.355 398.649 535.577 382.317 533.89C337.111 529.22 301.759 494.859 272.17 463.018C268.817 459.408 265.419 455.725 262.136 452.163C235.487 423.265 207.934 393.386 175.099 372.556C133.156 345.946 87.5083 338.842 49.8999 353.095C28.5063 361.195 9.57573 380.072 0.492995 402.362C-6.62581 419.832 -6.88917 437.322 -0.250031 451.61L-1.62344 452.249C-8.4415 437.576 -8.18833 419.657 -0.910332 401.791C3.5506 390.841 10.4646 380.448 19.0816 371.734C27.9683 362.751 38.4384 355.815 49.3614 351.68C69.3277 344.12 91.2552 342.437 114.54 346.672C135.254 350.441 156.476 358.949 175.908 371.278C208.907 392.214 236.532 422.169 263.246 451.138C266.528 454.698 269.924 458.381 273.276 461.989C302.677 493.629 337.787 527.771 382.469 532.385C442.045 538.539 488.91 491.307 506.294 470.713C536.95 434.397 558.217 390.275 578.783 347.605C591.57 321.074 604.793 293.64 620.105 268.472C637.288 240.231 655.371 217.848 675.389 200.045C696.673 181.168 721.157 165.291 748.168 152.854C773.499 141.19 801.203 132.472 830.505 126.94C884.851 116.682 943.924 117.463 1001.34 129.2C1032.62 135.594 1065.83 145.418 1102.88 159.236C1135.96 171.572 1169.17 185.957 1201.28 199.868C1234.15 214.106 1268.14 228.828 1302.64 241.678C1430.1 289.145 1537.36 297.834 1621.43 267.504L1621.95 268.928Z" fill="#30323A"/>
<path d="M1625.96 281.775C1602.14 290.445 1576.35 296.097 1549.22 298.589C1523.15 300.983 1495.19 300.514 1466.12 297.197C1416.1 291.486 1361.13 277.159 1302.75 254.612C1266.38 240.565 1230.55 224.364 1195.9 208.698C1131.84 179.734 1065.6 149.785 995.904 133.768C912.331 114.563 830.591 118.546 762.133 143.463C726.797 156.324 695.005 174.757 668.307 198.461C622.566 239.159 595.677 295.802 569.675 350.581C548.903 394.339 527.425 439.587 496.361 477.052C479.653 497.206 460.252 513.737 440.264 524.859C416.986 537.809 393.59 543.264 370.726 541.069C350.825 539.159 331.419 531.465 311.399 517.548C292.084 504.124 275.126 486.827 262.507 473.261C257.106 467.454 251.684 461.487 246.438 455.718C222.821 429.74 198.397 402.878 169.463 383.282C128.947 355.838 84.6699 347.758 47.9832 361.114C26.7525 368.843 8.20085 387.442 -0.433122 409.652C-7.21865 427.106 -6.94083 444.432 0.350968 458.434L-1.03878 459.156C-8.54198 444.746 -8.84466 426.964 -1.89304 409.084C6.90054 386.466 25.8059 367.52 47.4469 359.64C66.9507 352.539 88.348 351.364 111.042 356.149C131.143 360.386 151.647 369.32 170.341 381.98C199.431 401.682 223.915 428.616 247.596 454.659C252.838 460.425 258.258 466.387 263.652 472.189C292.445 503.149 327.702 535.361 370.875 539.503C430.79 545.257 477.747 497.041 495.154 476.045C526.092 438.73 547.529 393.57 568.258 349.901C581.298 322.429 594.784 294.022 610.458 267.986C628.047 238.772 646.626 215.645 667.265 197.285C688.579 178.357 713.2 162.605 740.447 150.463C765.956 139.095 793.92 130.813 823.56 125.844C878.375 116.658 938.091 118.868 996.252 132.234C1027.6 139.439 1060.9 150.047 1098.04 164.667C1131.18 177.712 1164.41 192.736 1196.54 207.263C1231.17 222.921 1266.98 239.114 1303.31 253.143C1431.05 302.476 1539.39 311.611 1625.39 280.309C1626.46 279.922 1627.51 279.529 1628.57 279.129L1629.12 280.593C1628.08 280.998 1627.02 281.39 1625.96 281.775Z" fill="#30323A"/>
<path d="M1629.36 294.907C1606.06 303.387 1580.99 309.009 1554.73 311.643C1528.07 314.314 1499.54 313.968 1469.92 310.617C1418.5 304.799 1362.47 289.83 1303.39 266.127C1264.89 250.813 1226.95 232.961 1190.26 215.697C1126.38 185.636 1060.32 154.553 990.769 136.851C862.113 104.105 738.542 126.12 660.219 195.744C613.107 237.68 585.698 296.267 559.191 352.921C538.253 397.675 516.604 443.951 485.269 482.413C468.536 502.952 449.111 519.839 429.097 531.249C405.731 544.568 382.194 550.287 359.139 548.247C339.59 546.517 320.539 539.273 300.897 526.104C285.648 515.879 270.382 502.342 252.846 483.503C245.729 475.856 238.668 467.919 231.841 460.245C210.942 436.758 189.332 412.47 163.828 394.003C125.33 366.128 81.3067 356.831 46.0643 369.133C25.0241 376.475 6.85695 394.774 -1.3421 416.881C-7.81698 434.341 -7.00448 451.523 0.948364 465.26L-0.45141 466.07C-8.65025 451.908 -9.50399 434.24 -2.86009 416.318C1.14393 405.519 7.66768 395.301 16.0034 386.776C24.6072 377.977 34.8155 371.347 45.5274 367.608C64.5748 360.96 85.4396 360.295 107.539 365.632C127.033 370.341 146.823 379.699 164.769 392.695C190.416 411.266 212.086 435.618 233.042 459.171C239.864 466.839 246.919 474.764 254.024 482.4C279.958 510.266 315.357 542.749 359.275 546.636C419.54 551.97 466.583 502.786 484.012 481.393C515.221 443.086 536.828 396.901 557.725 352.236C571.021 323.817 584.769 294.432 600.807 267.522C618.802 237.33 637.883 213.456 659.142 194.536C680.491 175.56 705.246 159.931 732.721 148.087C758.408 137.015 786.628 129.169 816.6 124.767C871.88 116.651 932.243 120.289 991.164 135.284C1022.44 143.247 1055.67 154.572 1092.75 169.908C1125.82 183.588 1158.93 199.169 1190.95 214.233C1227.61 231.488 1265.53 249.327 1303.98 264.625C1431.49 315.782 1540.68 325.462 1628.66 293.442C1631.03 292.578 1633.37 291.691 1635.71 290.769L1636.3 292.271C1634.01 293.181 1631.69 294.059 1629.36 294.907Z" fill="#30323A"/>
<path d="M1632.87 308.051C1610.09 316.343 1585.72 321.922 1560.24 324.664C1533.03 327.592 1503.93 327.353 1473.75 323.952C1421.15 318.025 1364.04 302.444 1304.02 277.645C1263.92 261.141 1224.34 241.822 1186.07 223.138C1121.89 191.803 1055.51 159.403 985.634 139.937C896.147 115.01 809.426 116.483 738.534 142.285C705.971 154.137 676.756 171.115 652.132 193.028C603.643 236.209 575.711 296.745 548.699 355.291C527.598 401.029 505.775 448.323 474.18 487.776C457.424 508.697 437.974 525.938 417.93 537.632C410.16 542.165 402.364 545.854 394.567 548.692C378.832 554.419 363.096 556.679 347.55 555.423C328.616 553.895 309.385 546.905 290.396 534.655C275.045 524.751 259.602 511.367 243.186 493.745C234.636 484.567 226.293 474.914 218.223 465.583C199.76 444.23 180.669 422.15 158.19 404.724C121.075 375.949 78.4413 365.641 44.1482 377.152C23.6642 383.941 5.46312 402.305 -2.20805 423.932C-8.42948 441.465 -7.09527 458.567 1.54777 472.084L0.143404 472.982C-8.78337 459.022 -10.1752 441.404 -3.77864 423.376C0.0185137 412.675 6.34778 402.583 14.528 394.191C22.9801 385.519 33.0407 379.08 43.6208 375.573C62.1898 369.34 82.5187 369.175 104.041 375.086C122.923 380.273 142.001 390.065 159.213 403.409C181.822 420.937 200.968 443.08 219.485 464.494C227.546 473.816 235.88 483.456 244.407 492.611C280.7 531.573 313.518 551.006 347.686 553.766C408.306 558.663 455.431 508.521 472.878 486.738C504.348 447.443 526.126 400.243 547.186 354.597C560.736 325.227 574.75 294.857 591.154 267.072C609.559 235.899 629.142 211.275 651.023 191.789C672.408 172.76 697.294 157.256 724.993 145.712C750.855 134.934 779.331 127.525 809.63 123.693C865.372 116.644 926.386 121.708 986.08 138.336C1017.5 147.089 1050.9 159.192 1088.18 175.332C1121.41 189.725 1154.66 205.951 1186.8 221.648C1225.05 240.319 1264.6 259.628 1304.66 276.111C1437.68 331.075 1551.46 339.927 1642.85 302.412L1643.48 303.955C1639.99 305.381 1636.45 306.75 1632.87 308.051Z" fill="#30323A"/>
<path d="M1636.49 321.206C1614.21 329.316 1590.48 334.847 1565.75 337.686C1537.99 340.872 1508.32 340.739 1477.57 337.287C1423.81 331.252 1365.63 315.059 1304.66 289.161C1262.95 271.447 1221.74 250.627 1181.89 230.494C1117.39 197.91 1050.69 164.218 980.494 143.019C847.976 103.005 722.198 120.683 644.038 190.313C594.166 234.741 565.709 297.244 538.19 357.688C516.923 404.399 494.932 452.7 463.081 493.139C446.303 514.441 426.825 532.031 406.755 544.01C383.225 558.055 359.405 564.309 335.959 562.603C317.359 561.248 298.496 554.722 279.892 543.206C264.503 533.679 248.901 520.483 233.521 503.988C223.794 493.552 214.482 482.393 205.476 471.603C189.191 452.089 172.354 431.912 152.548 415.443C116.966 385.853 75.7224 374.536 42.2243 385.175C21.9326 391.618 4.13806 409.664 -3.1133 431.146C-9.0356 448.691 -7.16965 465.654 2.13988 478.907L0.734087 479.894C-4.22034 472.839 -7.14831 464.787 -7.96841 455.963C-8.73341 447.735 -7.64635 439.201 -4.74196 430.596C-1.16109 419.989 4.9785 410 13.0156 401.71C21.3199 393.141 31.2412 386.857 41.7029 383.535C51.0012 380.581 60.9044 379.233 71.1343 379.527C80.6784 379.803 90.5765 381.503 100.553 384.587C118.854 390.242 137.213 400.455 153.645 414.119C173.572 430.689 190.46 450.928 206.793 470.5C215.784 481.272 225.079 492.413 234.775 502.813C268.422 538.903 302.505 558.442 336.081 560.887C397.07 565.329 444.27 514.244 461.731 492.074C493.453 451.8 515.401 403.596 536.625 356.975C550.433 326.65 564.71 295.289 581.483 266.623C590.516 251.184 599.541 237.717 609.072 225.454C619.772 211.688 630.835 199.774 642.896 189.031C664.318 169.947 689.334 154.571 717.255 143.328C743.292 132.843 772.018 125.873 802.64 122.61C858.837 116.626 920.51 123.113 980.99 141.376C1051.33 162.616 1118.1 196.344 1182.66 228.962C1222.49 249.083 1263.68 269.891 1305.33 287.583C1440.45 344.977 1556.4 353.885 1649.98 314.042L1650.66 315.622C1646 317.599 1641.28 319.462 1636.49 321.206Z" fill="#30323A"/>
</g>
</svg>
